<svg version="1.1"
  xmlns="http://www.w3.org/2000/svg"
  height="330"  width="930" viewBox="0 0 930 330"
  preserveAspectRatio="xMinYMin">

  <!--    Hvid ramme (heøjde + 100 og bredde +150)-->
  <rect x="0" y="0" height="330" width="930"
    style="stroke:#fff; fill: #fff"/>



  <defs>
    <marker
      id="beginArrow"
      markerWidth="12"
      markerHeight="12"
      refX="0"
      refY="6"
      orient="auto">
      <path d="M0,6 L12,0 L12,12 L0,6" style="fill: #000000;" />
    </marker>
    <marker
      id="endArrow"
      markerWidth="12"
      markerHeight="12"
      refX="12"
      refY="6"
      orient="auto">
      <path d="M0,0 L12,6 L0,12 L0,0 " style="fill: #000000;" />
    </marker>
  </defs>

  <!--    Lodret måling-->
  <line x1="20"  y1="10" x2="20"   y2="250"
    style="stroke: #000000;
	marker-start: url(#beginArrow);
	marker-end: url(#endArrow);"/>

  <text style="text-anchor: middle" transform="translate(15,135) rotate(-90)">230 cm</text>


  <!--    Lodret måling-->
  <line x1="50"  y1="30" x2="50"   y2="250"
    style="stroke: #000000;
	marker-start: url(#beginArrow);
	marker-end: url(#endArrow);"/>

  <text style="text-anchor: middle" transform="translate(45,135) rotate(-90)">210 cm</text>

  <!--    Lodret måling-->
  <line x1="900"  y1="20" x2="900"   y2="250"
    style="stroke: #000000;
	marker-start: url(#beginArrow);
	marker-end: url(#endArrow);"/>

  <text style="text-anchor: middle" transform="translate(890,135) rotate(-90)">220 cm</text>


  <!--    Vandret spær (stiger 55)-->
  <line x1="75"  y1="290" x2="175"  y2="290" style="stroke: #000000; marker-start: url(#beginArrow);marker-end: url(#endArrow);"/>
  <text style="text-anchor: middle" transform="translate(125,280) rotate(0)">100 cm</text>

  <line x1="175"  y1="290" x2="485"  y2="290" style="stroke: #000000; marker-start: url(#beginArrow);marker-end: url(#endArrow);"/>
  <text style="text-anchor: middle" transform="translate(330,280) rotate(0)">310 cm</text>

  <line x1="485"  y1="290" x2="615"  y2="290" style="stroke: #000000; marker-start: url(#beginArrow);marker-end: url(#endArrow);"/>
  <text style="text-anchor: middle" transform="translate(550,280) rotate(0)">130 cm</text>

  <line x1="615"  y1="290" x2="825"  y2="290" style="stroke: #000000; marker-start: url(#beginArrow);marker-end: url(#endArrow);"/>
  <text style="text-anchor: middle" transform="translate(720,280) rotate(0)">210 cm</text>

  <line x1="825"  y1="290" x2="855"  y2="290" style="stroke: #000000; marker-start: url(#beginArrow);marker-end: url(#endArrow);"/>
  <text style="text-anchor: middle" transform="translate(840,280) rotate(0)">30 cm</text>


  <!--    Skur-->
  <svg version="1.1"
    xmlns="http://www.w3.org/2000/svg"
    xmlns:xlink="http://www.w3.org/1999/xlink"
    x="75"
    y="10"
    width="780"
    height="230"
    viewBox="0 0 780 230"
    preserveAspectRatio="xMinYMin">

    <!--        Stiger med -->
    <rect x="540" y="30" height="200" width="10"
      style="stroke:#000000; " fill="none"/>
    <rect x="550" y="30" height="200" width="10"
      style="stroke:#000000; " fill="none"/>
    <rect x="560" y="30" height="200" width="10"
      style="stroke:#000000; " fill="none"/>
    <rect x="570" y="30" height="200" width="10"
      style="stroke:#000000; " fill="none"/>
    <rect x="580" y="30" height="200" width="10"
      style="stroke:#000000; " fill="none"/>
    <rect x="590" y="30" height="200" width="10"
      style="stroke:#000000; " fill="none"/>
    <rect x="600" y="30" height="200" width="10"
      style="stroke:#000000; " fill="none"/>
    <rect x="610" y="30" height="200" width="10"
      style="stroke:#000000;" fill="none"/>
    <rect x="620" y="30" height="200" width="10"
      style="stroke:#000000; " fill="none"/>
    <rect x="630" y="30" height="200" width="10"
      style="stroke:#000000;" fill="none"/>
    <rect x="640" y="30" height="200" width="10"
      style="stroke:#000000;" fill="none"/>
    <rect x="650" y="30" height="200" width="10"
      style="stroke:#000000;" fill="none"/>
    <rect x="660" y="30" height="200" width="10"
      style="stroke:#000000;" fill="none"/>
    <rect x="670" y="30" height="200" width="10"
      style="stroke:#000000;" fill="none"/>
    <rect x="680" y="30" height="200" width="10"
      style="stroke:#000000;" fill="none"/>
    <rect x="690" y="30" height="200" width="10"
      style="stroke:#000000;" fill="none"/>
    <rect x="700" y="30" height="200" width="10"
      style="stroke:#000000;" fill="none"/>
    <rect x="710" y="30" height="200" width="10"
      style="stroke:#000000;" fill="none"/>
    <rect x="720" y="30" height="200" width="10"
      style="stroke:#000000;" fill="none"/>
    <rect x="730" y="30" height="200" width="10"
      style="stroke:#000000;" fill="none"/>
    <rect x="740" y="30" height="200" width="10"
      style="stroke:#000000;" fill="none"/>
  </svg>

  <!--    Carport-->
  <svg version="1.1"
    xmlns="http://www.w3.org/2000/svg"
    xmlns:xlink="http://www.w3.org/1999/xlink"
    x="75"
    y="10"
    width="780"
    height="230"
    viewBox="0 0 780 230"
    preserveAspectRatio="xMinYMin">


    <!--    Carport Stolpe-->
    <rect x="100" y="10" height="220" width="10"
      style="stroke:#000000; fill: #fff"/>

    <rect x="410" y="20" height="210" width="10"
      style="stroke:#000000; fill: #fff"/>

    <rect x="750" y="20" height="210" width="10"
      style="stroke:#000000; fill: #fff"/>


    <!--    Carport tag-->
    <rect x="0" y="0" height="20" width="780"
      style="stroke:#000000; fill: #fff" transform="rotate(1)"/>

    <rect x="0" y="20" height="20" width="780"
      style="stroke:#000000; fill: #fff" transform="rotate(1)"/>

  </svg>

</svg>

