<svg version="1.1"
  xmlns="http://www.w3.org/2000/svg"
  xmlns:xlink="http://www.w3.org/1999/xlink"
  height="700"  width="880" viewBox="0 0 880 700"
  preserveAspectRatio="xMinYMin">

  <!--    Hvid ramme-->
  <rect x="0" y="0" height="700" width="880"
    style="stroke:#000000; fill: #fff"/>



  <defs>
    <marker
      id="beginArrow"
      markerWidth="12"
      markerHeight="12"
      refX="0"
      refY="6"
      orient="auto">
      <path d="M0,6 L12,0 L12,12 L0,6" style="fill: #000000;" />
    </marker>
    <marker
      id="endArrow"
      markerWidth="12"
      markerHeight="12"
      refX="12"
      refY="6"
      orient="auto">
      <path d="M0,0 L12,6 L0,12 L0,0 " style="fill: #000000;" />
    </marker>
  </defs>

  <!--    Lodret måling-->
  <line x1="40"  y1="10" x2="40"   y2="610"
    style="stroke: #000000;
	marker-start: url(#beginArrow);
	marker-end: url(#endArrow);"/>

  <text style="text-anchor: middle" transform="translate(30,300) rotate(-90)">600 cm</text>


  <!--    Vandret måling-->
  <line x1="75"  y1="670" x2="855"   y2="670"
    style="stroke: #000000;
	marker-start: url(#beginArrow);
	marker-end: url(#endArrow);"/>

  <text style="text-anchor: middle" transform="translate(440,685) rotate(0)">780 cm</text>



  <!--    Carport-->
  <svg version="1.1"
    xmlns="http://www.w3.org/2000/svg"
    xmlns:xlink="http://www.w3.org/1999/xlink"
    x="75"
    y="10"
    width="780"
    height="700"
    viewBox="0 0 780 700"
    preserveAspectRatio="xMinYMin">


    <!--    Vandret spær (stiger 55)-->
    <line x1="10"  y1="620" x2="65"  y2="620" style="stroke: #000000; marker-start: url(#beginArrow);marker-end: url(#endArrow);"/>
    <text style="text-anchor: middle" transform="translate(35,640) rotate(0)">0,55</text>

    <line x1="65"  y1="620" x2="120"  y2="620" style="stroke: #000000; marker-start: url(#beginArrow);marker-end: url(#endArrow);"/>
    <text style="text-anchor: middle" transform="translate(90,640) rotate(0)">0,55</text>

    <line x1="120"  y1="620" x2="175"  y2="620" style="stroke: #000000; marker-start: url(#beginArrow);marker-end: url(#endArrow);"/>
    <text style="text-anchor: middle" transform="translate(145,640) rotate(0)">0,55</text>

    <line x1="175"  y1="620" x2="230"  y2="620" style="stroke: #000000; marker-start: url(#beginArrow);marker-end: url(#endArrow);"/>
    <text style="text-anchor: middle" transform="translate(200,640) rotate(0)">0,55</text>

    <line x1="230"  y1="620" x2="285"  y2="620" style="stroke: #000000; marker-start: url(#beginArrow);marker-end: url(#endArrow);"/>
    <text style="text-anchor: middle" transform="translate(255,640) rotate(0)">0,55</text>

    <line x1="285"  y1="620" x2="340"  y2="620" style="stroke: #000000; marker-start: url(#beginArrow);marker-end: url(#endArrow);"/>
    <text style="text-anchor: middle" transform="translate(310,640) rotate(0)">0,55</text>

    <line x1="340"  y1="620" x2="395"  y2="620" style="stroke: #000000; marker-start: url(#beginArrow);marker-end: url(#endArrow);"/>
    <text style="text-anchor: middle" transform="translate(365,640) rotate(0)">0,55</text>

    <line x1="395"  y1="620" x2="450"  y2="620" style="stroke: #000000; marker-start: url(#beginArrow);marker-end: url(#endArrow);"/>
    <text style="text-anchor: middle" transform="translate(420,640) rotate(0)">0,55</text>

    <line x1="450"  y1="620" x2="505"  y2="620" style="stroke: #000000; marker-start: url(#beginArrow);marker-end: url(#endArrow);"/>
    <text style="text-anchor: middle" transform="translate(475,640) rotate(0)">0,55</text>

    <line x1="505"  y1="620" x2="560"  y2="620" style="stroke: #000000; marker-start: url(#beginArrow);marker-end: url(#endArrow);"/>
    <text style="text-anchor: middle" transform="translate(530,640) rotate(0)">0,55</text>

    <line x1="560"  y1="620" x2="615"  y2="620" style="stroke: #000000; marker-start: url(#beginArrow);marker-end: url(#endArrow);"/>
    <text style="text-anchor: middle" transform="translate(585,640) rotate(0)">0,55</text>

    <line x1="615"  y1="620" x2="670"  y2="620" style="stroke: #000000; marker-start: url(#beginArrow);marker-end: url(#endArrow);"/>
    <text style="text-anchor: middle" transform="translate(640,640) rotate(0)">0,55</text>

    <line x1="670"  y1="620" x2="725"  y2="620" style="stroke: #000000; marker-start: url(#beginArrow);marker-end: url(#endArrow);"/>
    <text style="text-anchor: middle" transform="translate(695,640) rotate(0)">0,55</text>

    <line x1="725"  y1="620" x2="780"  y2="620" style="stroke: #000000; marker-start: url(#beginArrow);marker-end: url(#endArrow);"/>
    <text style="text-anchor: middle" transform="translate(750,640) rotate(0)">0,55</text>


    <!--    Carport hvid ramme-->
    <rect x="0" y="0" height="600" width="780"
      style="stroke:#000000; fill: #fff"/>

    <!--    Siderne  (Starter 35 ind og slutter 35 før)-->
    <rect x="0" y="35" height="4.5" width="780"
      style="stroke:#000000; fill: #fff"/>

    <rect x="0" y="565" height="4.5" width="780"
      style="stroke:#000000; fill: #fff"/>



    <!--    Kryds-->
    <line x1="60" y1="35" x2="540" y2="570"  style="stroke:#000000; stroke-dasharray: 10,10"/>

    <line x1="60" y1="570" x2="540" y2="35"  style="stroke:#000000; stroke-dasharray: 10,10"/>



    <!--    Front og bagkant-->
    <rect x="0" y="0" height="600" width="4"
      style="stroke:#000000; fill: #fff"/>

    <rect x="776" y="0" height="600" width="4"
      style="stroke:#000000; fill: #fff"/>


    <!--    Spær (Stiger 55)-->
    <rect x="60" y="0" height="600" width="4.5"
      style="stroke:#000000; fill: #fff"/>

    <rect x="115" y="0" height="600" width="4.5"
      style="stroke:#000000; fill: #fff"/>

    <rect x="170" y="0" height="600" width="4.5"
      style="stroke:#000000; fill: #fff"/>

    <rect x="225" y="0" height="600" width="4.5"
      style="stroke:#000000; fill: #fff"/>

    <rect x="280" y="0" height="600" width="4.5"
      style="stroke:#000000; fill: #fff"/>

    <rect x="335" y="0" height="600" width="4.5"
      style="stroke:#000000; fill: #fff"/>

    <rect x="390" y="0" height="600" width="4.5"
      style="stroke:#000000; fill: #fff"/>

    <rect x="445" y="0" height="600" width="4.5"
      style="stroke:#000000; fill: #fff"/>

    <rect x="500" y="0" height="600" width="4.5"
      style="stroke:#000000; fill: #fff"/>

    <rect x="555" y="0" height="600" width="4.5"
      style="stroke:#000000; fill: #fff"/>

    <rect x="610" y="0" height="600" width="4.5"
      style="stroke:#000000; fill: #fff"/>

    <rect x="665" y="0" height="600" width="4.5"
      style="stroke:#000000; fill: #fff"/>

    <rect x="720" y="0" height="600" width="4.5"
      style="stroke:#000000; fill: #fff"/>



    <!--    Stolper øverst (Starter og slutter 32.5 før/efter) og plus 4 længde -->
    <rect x="112" y="32.5" height="9.7" width="9.7"
      style="stroke:#000000; fill: #fff"/>

    <rect x="415" y="32.5" height="9.7" width="9.7"
      style="stroke:#000000; fill: #fff"/>

    <rect x="744" y="32.5" height="9.7" width="9.7"
      style="stroke:#000000; fill: #fff"/>



    <!--    Stolper neders (Starter og slutter 32.5 før/efter) og plus 4 længde -->
    <rect x="112" y="562.5" height="9.7" width="9.7"
      style="stroke:#000000; fill: #fff"/>

    <rect x="415" y="562.5" height="9.7" width="9.7"
      style="stroke:#000000; fill: #fff"/>

    <rect x="745" y="562.5" height="9.7" width="9.7"
      style="stroke:#000000; fill: #fff"/>



  </svg>

  <!--    Skur-->
  <svg version="1.1"
    xmlns="http://www.w3.org/2000/svg"
    xmlns:xlink="http://www.w3.org/1999/xlink"
    x="75"
    y="10"
    width="780"
    height="600"
    viewBox="0 0 780 600"
    preserveAspectRatio="xMinYMin">

    <!--    Skur sider (minus 25 i bunden => længde 600 - 60 = 540)-->
    <rect x="552" y="32.5" height="540" width="203"
      style="stroke:#000000; stroke-dasharray: 10,10;" fill="none"/>

    <!--    Skur sider (minus 25 i bunden) 3/4 størrelse-->
    <rect x="552" y="32.5" height="405" width="203"
      style="stroke:#000000; stroke-dasharray: 10,10;" fill="none"/>

    <!--    Skur sider (minus 25 i bunden) Halv størrelse-->
    <rect x="552" y="32.5" height="275" width="203"
      style="stroke:#000000; stroke-dasharray: 10,10;" fill="none"/>

    <!--    Skur sider (minus 25 i bunden) 1/4 størrelse-->
    <rect x="552" y="32.5" height="135" width="203"
      style="stroke:#000000; stroke-dasharray: 10,10;" fill="none"/>



    <!--        Skur 1/1-->
    <!--    Stolper skur (552 => 228 fra bunden)-->
    <rect x="552" y="32.5" height="9.7" width="9.7"
      style="stroke:#000000; fill: #fff"/>

    <rect x="745" y="295" height="9.7" width="9.7"
      style="stroke:#000000; fill: #fff"/>

    <rect x="552" y="295" height="9.7" width="9.7"
      style="stroke:#000000; fill: #fff"/>

    <rect x="552" y="562.5" height="9.7" width="9.7"
      style="stroke:#000000; fill: #fff"/>



    <!--        Skur 3/4-->
    <rect x="745" y="428" height="9.7" width="9.7"
      style="stroke:#000000; fill: #fff"/>

    <rect x="552" y="428" height="9.7" width="9.7"
      style="stroke:#000000; fill: #fff"/>


    <!--        Skur 1/4-->
    <rect x="745" y="155" height="9.7" width="9.7"
      style="stroke:#000000; fill: #fff"/>

    <rect x="552" y="155" height="9.7" width="9.7"
      style="stroke:#000000; fill: #fff"/>









  </svg>




</svg>


